<svg width="20" height="20" viewBox="0 0 20 20" fill="none" xmlns="http://www.w3.org/2000/svg">
<path d="M9.99935 5.83333C9.99935 4.94928 9.64816 4.10143 9.02304 3.47631C8.39792 2.85119 7.55007 2.5 6.66602 2.5H1.66602V15H7.49935C8.16239 15 8.79828 15.2634 9.26712 15.7322C9.73596 16.2011 9.99935 16.837 9.99935 17.5M9.99935 5.83333V17.5M9.99935 5.83333C9.99935 4.94928 10.3505 4.10143 10.9757 3.47631C11.6008 2.85119 12.4486 2.5 13.3327 2.5H18.3327V15H12.4993C11.8363 15 11.2004 15.2634 10.7316 15.7322C10.2627 16.2011 9.99935 16.837 9.99935 17.5" stroke="#0682A2" stroke-width="1.6" stroke-linecap="round" stroke-linejoin="round"/>
</svg>
