<svg width="24" height="25" viewBox="0 0 24 25" fill="none" xmlns="http://www.w3.org/2000/svg">
<path d="M12 3.47119C9.48044 3.47119 7.06408 4.47208 5.28249 6.25368C3.50089 8.03527 2.5 10.4516 2.5 12.9712C2.5 15.4907 3.50089 17.9071 5.28249 19.6887C7.06408 21.4703 9.48044 22.4712 12 22.4712C12.1989 22.4712 12.3897 22.5502 12.5303 22.6909C12.671 22.8315 12.75 23.0223 12.75 23.2212C12.75 23.4201 12.671 23.6109 12.5303 23.7515C12.3897 23.8922 12.1989 23.9712 12 23.9712C5.925 23.9712 1 19.0462 1 12.9712C1 6.89619 5.925 1.97119 12 1.97119C18.075 1.97119 23 6.89619 23 12.9712C23 13.1701 22.921 13.3609 22.7803 13.5015C22.6397 13.6422 22.4489 13.7212 22.25 13.7212C22.0511 13.7212 21.8603 13.6422 21.7197 13.5015C21.579 13.3609 21.5 13.1701 21.5 12.9712C21.5 10.4516 20.4991 8.03527 18.7175 6.25368C16.9359 4.47208 14.5196 3.47119 12 3.47119Z" fill="#0682A2"/>
<path d="M13.7585 18.4512L17.4865 21.7652C17.5309 21.8048 17.5857 21.8306 17.6445 21.8397C17.7032 21.8488 17.7633 21.8407 17.8175 21.8164C17.8718 21.7921 17.9178 21.7526 17.9501 21.7027C17.9824 21.6528 17.9996 21.5946 17.9995 21.5352V18.9712H22.2495C22.4484 18.9712 22.6392 18.8922 22.7799 18.7515C22.9205 18.6109 22.9995 18.4201 22.9995 18.2212C22.9995 18.0223 22.9205 17.8315 22.7799 17.6909C22.6392 17.5502 22.4484 17.4712 22.2495 17.4712H17.9995V14.9072C17.9996 14.8478 17.9824 14.7896 17.9501 14.7397C17.9178 14.6898 17.8718 14.6503 17.8175 14.626C17.7633 14.6017 17.7032 14.5936 17.6445 14.6027C17.5857 14.6118 17.5309 14.6377 17.4865 14.6772L13.7585 17.9912C13.7259 18.02 13.6999 18.0554 13.682 18.0951C13.6641 18.1347 13.6549 18.1777 13.6549 18.2212C13.6549 18.2647 13.6641 18.3077 13.682 18.3474C13.6999 18.387 13.7259 18.4224 13.7585 18.4512ZM17.2795 10.2512C17.3491 10.1816 17.4043 10.099 17.442 10.008C17.4797 9.91711 17.4991 9.81964 17.4991 9.72121C17.4991 9.62278 17.4797 9.52532 17.442 9.43438C17.4043 9.34344 17.3491 9.26081 17.2795 9.19121C17.2099 9.12161 17.1273 9.0664 17.0364 9.02874C16.9454 8.99107 16.848 8.97168 16.7495 8.97168C16.6511 8.97168 16.5536 8.99107 16.4627 9.02874C16.3718 9.0664 16.2891 9.12161 16.2195 9.19121L10.2495 15.1602L7.77953 12.6912C7.70993 12.6216 7.6273 12.5664 7.53637 12.5287C7.44543 12.4911 7.34796 12.4717 7.24953 12.4717C7.1511 12.4717 7.05364 12.4911 6.9627 12.5287C6.87176 12.5664 6.78913 12.6216 6.71953 12.6912C6.64993 12.7608 6.59472 12.8434 6.55705 12.9344C6.51939 13.0253 6.5 13.1228 6.5 13.2212C6.5 13.3196 6.51939 13.4171 6.55705 13.508C6.59472 13.599 6.64993 13.6816 6.71953 13.7512L9.71953 16.7512C9.86016 16.8917 10.0508 16.9706 10.2495 16.9706C10.4483 16.9706 10.6389 16.8917 10.7795 16.7512L17.2795 10.2512Z" fill="#0682A2"/>
</svg>
