<svg width="21" height="21" viewBox="0 0 21 21" fill="none" xmlns="http://www.w3.org/2000/svg">
<mask id="path-1-inside-1_11_21832" fill="white">
<path d="M19.6887 1.34418C19.6887 1.14456 19.4891 1.04475 19.2895 0.944938C15.4967 -0.0531721 11.4044 1.24437 8.90914 4.2387L7.6116 5.73587L4.9167 5.03719C3.81878 4.63795 2.72086 5.137 2.22181 6.13511L0.125775 9.82812C0.125775 9.82812 0.125775 9.92793 0.0259638 9.92793C-0.0738472 10.2274 0.125775 10.427 0.425208 10.5268L3.81878 11.2255C3.51935 12.1238 3.21992 13.0221 3.12011 13.9204C3.12011 14.12 3.12011 14.2198 3.21992 14.3196L6.21425 17.2141C6.31406 17.3139 6.41387 17.3139 6.61349 17.3139C7.51179 17.2141 8.5099 17.0145 9.4082 16.7151L10.1069 20.0088C10.1069 20.2085 10.4063 20.4081 10.6059 20.4081C10.7057 20.4081 10.8056 20.4081 10.8056 20.3083L14.4986 18.2122C15.3969 17.7132 15.7961 16.6153 15.5965 15.6172L14.8978 12.7226L16.2952 11.4251C19.3893 9.12944 20.6868 5.137 19.6887 1.34418ZM1.32351 9.72831L3.02029 6.63417C3.31973 6.0353 3.91859 5.83568 4.51746 6.0353L6.81311 6.63417L5.815 7.8319C5.21614 8.63039 4.61727 9.42887 4.21803 10.3272L1.32351 9.72831ZM14.0993 17.6134L11.0052 19.41L10.4063 16.5155C11.3046 16.1162 12.1031 15.5173 12.9016 14.9185L14.1991 13.7207L14.798 16.0164C14.798 16.6153 14.5984 17.3139 14.0993 17.6134ZM15.6963 10.926L12.2029 14.12C10.7057 15.4175 8.80933 16.216 6.81311 16.4156L4.21803 13.8206C4.51746 11.8243 5.31595 9.92793 6.61349 8.43076L8.21047 6.63417L8.31028 6.53435L9.70763 4.93738C11.9035 2.34229 15.4967 1.14456 18.7904 1.84324C19.4891 5.23681 18.3912 8.7302 15.6963 10.926ZM14.4986 4.2387C13.4006 4.2387 12.6022 5.137 12.6022 6.13511C12.6022 7.13322 13.5005 8.03152 14.4986 8.03152C15.5965 8.03152 16.395 7.13322 16.395 6.13511C16.395 5.137 15.5965 4.2387 14.4986 4.2387ZM14.4986 7.13322C13.9995 7.13322 13.6003 6.73398 13.6003 6.23492C13.6003 5.73587 13.9995 5.33662 14.4986 5.33662C14.9976 5.33662 15.3969 5.73587 15.3969 6.23492C15.3969 6.73398 14.9976 7.13322 14.4986 7.13322Z"/>
</mask>
<path d="M19.6887 1.34418C19.6887 1.14456 19.4891 1.04475 19.2895 0.944938C15.4967 -0.0531721 11.4044 1.24437 8.90914 4.2387L7.6116 5.73587L4.9167 5.03719C3.81878 4.63795 2.72086 5.137 2.22181 6.13511L0.125775 9.82812C0.125775 9.82812 0.125775 9.92793 0.0259638 9.92793C-0.0738472 10.2274 0.125775 10.427 0.425208 10.5268L3.81878 11.2255C3.51935 12.1238 3.21992 13.0221 3.12011 13.9204C3.12011 14.12 3.12011 14.2198 3.21992 14.3196L6.21425 17.2141C6.31406 17.3139 6.41387 17.3139 6.61349 17.3139C7.51179 17.2141 8.5099 17.0145 9.4082 16.7151L10.1069 20.0088C10.1069 20.2085 10.4063 20.4081 10.6059 20.4081C10.7057 20.4081 10.8056 20.4081 10.8056 20.3083L14.4986 18.2122C15.3969 17.7132 15.7961 16.6153 15.5965 15.6172L14.8978 12.7226L16.2952 11.4251C19.3893 9.12944 20.6868 5.137 19.6887 1.34418ZM1.32351 9.72831L3.02029 6.63417C3.31973 6.0353 3.91859 5.83568 4.51746 6.0353L6.81311 6.63417L5.815 7.8319C5.21614 8.63039 4.61727 9.42887 4.21803 10.3272L1.32351 9.72831ZM14.0993 17.6134L11.0052 19.41L10.4063 16.5155C11.3046 16.1162 12.1031 15.5173 12.9016 14.9185L14.1991 13.7207L14.798 16.0164C14.798 16.6153 14.5984 17.3139 14.0993 17.6134ZM15.6963 10.926L12.2029 14.12C10.7057 15.4175 8.80933 16.216 6.81311 16.4156L4.21803 13.8206C4.51746 11.8243 5.31595 9.92793 6.61349 8.43076L8.21047 6.63417L8.31028 6.53435L9.70763 4.93738C11.9035 2.34229 15.4967 1.14456 18.7904 1.84324C19.4891 5.23681 18.3912 8.7302 15.6963 10.926ZM14.4986 4.2387C13.4006 4.2387 12.6022 5.137 12.6022 6.13511C12.6022 7.13322 13.5005 8.03152 14.4986 8.03152C15.5965 8.03152 16.395 7.13322 16.395 6.13511C16.395 5.137 15.5965 4.2387 14.4986 4.2387ZM14.4986 7.13322C13.9995 7.13322 13.6003 6.73398 13.6003 6.23492C13.6003 5.73587 13.9995 5.33662 14.4986 5.33662C14.9976 5.33662 15.3969 5.73587 15.3969 6.23492C15.3969 6.73398 14.9976 7.13322 14.4986 7.13322Z" fill="#0682A2"/>
<path d="M19.6887 1.34418H15.9772V1.82437L16.0994 2.28875L19.6887 1.34418ZM19.2895 0.944938L20.9494 -2.37479L20.6057 -2.54664L20.2341 -2.64443L19.2895 0.944938ZM8.90914 4.2387L11.7139 6.66952L11.7375 6.64238L11.7605 6.61479L8.90914 4.2387ZM7.6116 5.73587L6.68014 9.32866L8.90863 9.90641L10.4164 8.16669L7.6116 5.73587ZM4.9167 5.03719L3.6483 8.5253L3.81428 8.58566L3.98524 8.62998L4.9167 5.03719ZM2.22181 6.13511L5.44971 7.96716L5.49789 7.88228L5.54154 7.79498L2.22181 6.13511ZM0.125775 9.82812L-3.10213 7.99607L-3.5858 8.84825L-3.5858 9.82812L0.125775 9.82812ZM0.0259638 9.92793V6.21636H-2.64919L-3.49514 8.75423L0.0259638 9.92793ZM0.425208 10.5268L-0.748494 14.0479L-0.539262 14.1176L-0.323242 14.1621L0.425208 10.5268ZM3.81878 11.2255L7.33989 12.3992L8.66189 8.43317L4.56723 7.59015L3.81878 11.2255ZM3.12011 13.9204L-0.568765 13.5105L-0.591466 13.7148V13.9204H3.12011ZM3.21992 14.3196L0.595439 16.9441L0.617679 16.9663L0.640292 16.9882L3.21992 14.3196ZM6.21425 17.2141L8.83872 14.5897L8.81648 14.5674L8.79387 14.5456L6.21425 17.2141ZM6.61349 17.3139V21.0255H6.81906L7.02337 21.0028L6.61349 17.3139ZM9.4082 16.7151L13.039 15.9449L12.1767 11.8799L8.2345 13.194L9.4082 16.7151ZM10.1069 20.0088H13.8184V19.6195L13.7377 19.2387L10.1069 20.0088ZM10.8056 20.3083L8.9735 17.0804L7.09398 18.1471V20.3083H10.8056ZM14.4986 18.2122L12.6961 14.9677L12.6812 14.976L12.6665 14.9843L14.4986 18.2122ZM15.5965 15.6172L19.236 14.8893L19.2216 14.8175L19.2044 14.7463L15.5965 15.6172ZM14.8978 12.7226L12.3723 10.0028L10.78 11.4813L11.2899 13.5935L14.8978 12.7226ZM16.2952 11.4251L14.0836 8.44434L13.9194 8.56616L13.7696 8.70528L16.2952 11.4251ZM1.32351 9.72831L-1.93084 7.94366L-4.34488 12.3457L0.571523 13.3629L1.32351 9.72831ZM3.02029 6.63417L6.27465 8.41881L6.30852 8.35704L6.34002 8.29403L3.02029 6.63417ZM4.51746 6.0353L3.34376 9.55641L3.461 9.59549L3.58058 9.62668L4.51746 6.0353ZM6.81311 6.63417L9.66442 9.01026L13.4074 4.51864L7.74999 3.04278L6.81311 6.63417ZM5.815 7.8319L2.96369 5.45581L2.90281 5.52887L2.84575 5.60495L5.815 7.8319ZM4.21803 10.3272L3.46604 13.9618L6.39496 14.5678L7.6097 11.8346L4.21803 10.3272ZM14.0993 17.6134L15.963 20.8231L15.9861 20.8097L16.0089 20.796L14.0993 17.6134ZM11.0052 19.41L7.37058 20.162L8.41423 25.2063L12.8689 22.6197L11.0052 19.41ZM10.4063 16.5155L8.8989 13.1238L6.16573 14.3385L6.77171 17.2674L10.4063 16.5155ZM12.9016 14.9185L15.1285 17.8877L15.28 17.7742L15.4191 17.6458L12.9016 14.9185ZM14.1991 13.7207L17.7905 12.7839L16.2285 6.79633L11.6816 10.9935L14.1991 13.7207ZM14.798 16.0164H18.5096V15.5402L18.3894 15.0795L14.798 16.0164ZM15.6963 10.926L13.3518 8.0487L13.2698 8.11547L13.1918 8.18679L15.6963 10.926ZM12.2029 14.12L14.6337 16.9248L14.671 16.8925L14.7074 16.8592L12.2029 14.12ZM6.81311 16.4156L4.18864 19.0401L5.43232 20.2838L7.18243 20.1088L6.81311 16.4156ZM4.21803 13.8206L0.547518 13.27L0.269819 15.1213L1.59355 16.445L4.21803 13.8206ZM6.61349 8.43076L3.83943 5.96493L3.82395 5.98234L3.8087 5.99994L6.61349 8.43076ZM8.21047 6.63417L5.58598 4.00969L5.50886 4.08681L5.4364 4.16833L8.21047 6.63417ZM8.31028 6.53435L10.9348 9.15883L11.0221 9.07144L11.1035 8.97844L8.31028 6.53435ZM9.70763 4.93738L12.5009 7.38147L12.5211 7.35832L12.541 7.33484L9.70763 4.93738ZM18.7904 1.84324L22.4258 1.09479L21.9361 -1.28366L19.5606 -1.78755L18.7904 1.84324ZM19.6887 1.34418H23.4003C23.4003 -0.222156 22.5337 -1.24949 21.9401 -1.74418C21.6666 -1.97203 21.4136 -2.12409 21.2659 -2.20779C21.1206 -2.29015 20.9825 -2.35822 20.9494 -2.37479L19.2895 0.944938L17.6296 4.26467C17.8346 4.36714 17.5096 4.2265 17.1879 3.95844C16.986 3.79022 16.676 3.48929 16.4161 3.02511C16.1383 2.52918 15.9772 1.95089 15.9772 1.34418H19.6887ZM19.2895 0.944938L20.2341 -2.64443C15.06 -4.00602 9.48373 -2.24847 6.05784 1.86261L8.90914 4.2387L11.7605 6.61479C13.3251 4.73721 15.9333 3.89967 18.3449 4.5343L19.2895 0.944938ZM8.90914 4.2387L6.10435 1.80788L4.80681 3.30504L7.6116 5.73587L10.4164 8.16669L11.7139 6.66952L8.90914 4.2387ZM7.6116 5.73587L8.54306 2.14308L5.84817 1.4444L4.9167 5.03719L3.98524 8.62998L6.68014 9.32866L7.6116 5.73587ZM4.9167 5.03719L6.18511 1.54908C3.19631 0.462244 0.186306 1.90678 -1.09792 4.47525L2.22181 6.13511L5.54154 7.79498C5.41237 8.05331 5.16287 8.32375 4.78498 8.48286C4.39033 8.64903 3.97171 8.6429 3.6483 8.5253L4.9167 5.03719ZM2.22181 6.13511L-1.0061 4.30306L-3.10213 7.99607L0.125775 9.82812L3.35368 11.6602L5.44971 7.96716L2.22181 6.13511ZM0.125775 9.82812C-3.5858 9.82812 -3.5858 9.8263 -3.58579 9.82449C-3.58579 9.82388 -3.58579 9.82206 -3.58579 9.82084C-3.58578 9.81841 -3.58578 9.81597 -3.58577 9.81352C-3.58575 9.80863 -3.58572 9.8037 -3.58568 9.79873C-3.5856 9.78881 -3.58548 9.77875 -3.58532 9.76855C-3.58499 9.74816 -3.58448 9.72716 -3.58376 9.70559C-3.58233 9.66255 -3.58003 9.61657 -3.57656 9.56797C-3.56971 9.47202 -3.5578 9.35919 -3.53686 9.23353C-3.4979 8.99981 -3.41308 8.63145 -3.20643 8.21815C-2.99251 7.79032 -2.61335 7.24959 -1.97514 6.82411C-1.31368 6.38315 -0.598548 6.21636 0.0259638 6.21636V9.92793V13.6395C0.700381 13.6395 1.45295 13.4602 2.14247 13.0006C2.80876 12.5564 3.20663 11.9907 3.43303 11.5379C3.65215 11.0996 3.74321 10.7063 3.78529 10.4539C3.80779 10.3189 3.82048 10.1982 3.82772 10.0968C3.83139 10.0455 3.83378 9.99739 3.83526 9.95289C3.83601 9.93058 3.83653 9.90902 3.83686 9.88826C3.83703 9.87787 3.83715 9.86767 3.83723 9.85765C3.83727 9.85264 3.8373 9.84767 3.83732 9.84275C3.83733 9.84029 3.83733 9.83784 3.83734 9.8354C3.83734 9.83418 3.83734 9.83236 3.83734 9.83175C3.83735 9.82993 3.83735 9.82812 0.125775 9.82812ZM0.0259638 9.92793L-3.49514 8.75423C-3.90878 9.99513 -3.73872 11.4021 -2.89339 12.5292C-2.19392 13.4618 -1.28407 13.8694 -0.748494 14.0479L0.425208 10.5268L1.59891 7.00569C1.83506 7.0844 2.49538 7.34228 3.04513 8.07527C3.34432 8.4742 3.58506 8.98606 3.67464 9.58321C3.76337 10.1748 3.68137 10.6987 3.54707 11.1016L0.0259638 9.92793ZM0.425208 10.5268L-0.323242 14.1621L3.07033 14.8608L3.81878 11.2255L4.56723 7.59015L1.17366 6.89147L0.425208 10.5268ZM3.81878 11.2255L0.297677 10.0518C0.0239379 10.873 -0.417788 12.1517 -0.568765 13.5105L3.12011 13.9204L6.80898 14.3302C6.85762 13.8924 7.01476 13.3746 7.33989 12.3992L3.81878 11.2255ZM3.12011 13.9204H-0.591466C-0.591466 13.9492 -0.592067 14.0731 -0.586941 14.2013C-0.581549 14.3361 -0.566818 14.5858 -0.506912 14.8853C-0.355323 15.6433 0.0110823 16.3597 0.595439 16.9441L3.21992 14.3196L5.84439 11.6951C6.04521 11.896 6.26115 12.1641 6.44245 12.5066C6.62365 12.8488 6.72041 13.1712 6.77208 13.4295C6.81951 13.6667 6.828 13.8478 6.83027 13.9046C6.83228 13.9548 6.83168 13.9913 6.83168 13.9204H3.12011ZM3.21992 14.3196L0.640292 16.9882L3.63462 19.8827L6.21425 17.2141L8.79387 14.5456L5.79954 11.651L3.21992 14.3196ZM6.21425 17.2141L3.58977 19.8386C4.17413 20.423 4.8906 20.7894 5.64853 20.941C5.94806 21.0009 6.19778 21.0156 6.33258 21.021C6.46074 21.0261 6.58462 21.0255 6.61349 21.0255V17.3139V13.6024C6.54255 13.6024 6.5791 13.6018 6.62928 13.6038C6.6861 13.6061 6.8672 13.6145 7.10435 13.662C7.36266 13.7136 7.68502 13.8104 8.02727 13.9916C8.36971 14.1729 8.6379 14.3888 8.83872 14.5897L6.21425 17.2141ZM6.61349 17.3139L7.02337 21.0028C8.13664 20.8791 9.39619 20.6314 10.5819 20.2362L9.4082 16.7151L8.2345 13.194C7.62361 13.3976 6.88694 13.5491 6.20362 13.6251L6.61349 17.3139ZM9.4082 16.7151L5.77741 17.4852L6.47609 20.779L10.1069 20.0088L13.7377 19.2387L13.039 15.9449L9.4082 16.7151ZM10.1069 20.0088H6.39531C6.39531 21.8777 7.63757 22.9398 8.05459 23.2526C8.57676 23.6442 9.46569 24.1197 10.6059 24.1197V20.4081V16.6965C11.5466 16.6965 12.186 17.0722 12.5085 17.3141C12.7166 17.4701 12.9939 17.7199 13.245 18.0966C13.4916 18.4665 13.8184 19.1241 13.8184 20.0088H10.1069ZM10.6059 20.4081V24.1197C10.6131 24.1197 10.6553 24.1197 10.7021 24.119C10.7511 24.1182 10.8304 24.1163 10.9261 24.1099C11.086 24.0992 11.4658 24.0671 11.9168 23.9167C12.3896 23.7591 13.1232 23.4095 13.7181 22.6447C14.338 21.8477 14.5171 20.975 14.5171 20.3083H10.8056H7.09398C7.09398 19.6914 7.26065 18.8562 7.85867 18.0873C8.43174 17.3505 9.13413 17.0196 9.5695 16.8745C9.98311 16.7366 10.3192 16.7107 10.4324 16.7032C10.5547 16.695 10.6573 16.6965 10.6059 16.6965V20.4081ZM10.8056 20.3083L12.6376 23.5362L16.3306 21.4401L14.4986 18.2122L12.6665 14.9843L8.9735 17.0804L10.8056 20.3083ZM14.4986 18.2122L16.3011 21.4567C18.8588 20.0358 19.6926 17.1724 19.236 14.8893L15.5965 15.6172L11.957 16.3451C11.9154 16.1373 11.9321 15.9231 12.0196 15.7074C12.112 15.4795 12.3185 15.1775 12.6961 14.9677L14.4986 18.2122ZM15.5965 15.6172L19.2044 14.7463L18.5058 11.8518L14.8978 12.7226L11.2899 13.5935L11.9885 16.488L15.5965 15.6172ZM14.8978 12.7226L17.4233 15.4425L18.8207 14.1449L16.2952 11.4251L13.7696 8.70528L12.3723 10.0028L14.8978 12.7226ZM16.2952 11.4251L18.5067 14.4058C22.8942 11.1506 24.6379 5.56698 23.2781 0.399612L19.6887 1.34418L16.0994 2.28875C16.7358 4.70702 15.8844 7.10828 14.0836 8.44434L16.2952 11.4251ZM1.32351 9.72831L4.57786 11.513L6.27465 8.41881L3.02029 6.63417L-0.234057 4.84952L-1.93084 7.94366L1.32351 9.72831ZM3.02029 6.63417L6.34002 8.29403C6.10333 8.76742 5.645 9.24958 4.97789 9.50372C4.33863 9.74724 3.74879 9.69141 3.34376 9.55641L4.51746 6.0353L5.69116 2.51419C4.68727 2.17956 3.49855 2.12373 2.33529 2.56688C1.14417 3.02064 0.236692 3.90204 -0.299436 4.9743L3.02029 6.63417ZM4.51746 6.0353L3.58058 9.62668L5.87623 10.2255L6.81311 6.63417L7.74999 3.04278L5.45434 2.44392L4.51746 6.0353ZM6.81311 6.63417L3.9618 4.25808L2.96369 5.45581L5.815 7.8319L8.66631 10.208L9.66442 9.01026L6.81311 6.63417ZM5.815 7.8319L2.84575 5.60495C2.29324 6.34163 1.42524 7.47226 0.826349 8.81976L4.21803 10.3272L7.6097 11.8346C7.8093 11.3855 8.13903 10.9191 8.78426 10.0588L5.815 7.8319ZM4.21803 10.3272L4.97001 6.69258L2.07549 6.09371L1.32351 9.72831L0.571523 13.3629L3.46604 13.9618L4.21803 10.3272ZM14.0993 17.6134L12.2356 14.4036L9.14146 16.2002L11.0052 19.41L12.8689 22.6197L15.963 20.8231L14.0993 17.6134ZM11.0052 19.41L14.6398 18.658L14.0409 15.7635L10.4063 16.5155L6.77171 17.2674L7.37058 20.162L11.0052 19.41ZM10.4063 16.5155L11.9137 19.9071C13.2612 19.3082 14.3919 18.4402 15.1285 17.8877L12.9016 14.9185L10.6746 11.9492C9.81434 12.5944 9.34799 12.9242 8.8989 13.1238L10.4063 16.5155ZM12.9016 14.9185L15.4191 17.6458L16.7166 16.448L14.1991 13.7207L11.6816 10.9935L10.3841 12.1912L12.9016 14.9185ZM14.1991 13.7207L10.6077 14.6576L11.2066 16.9533L14.798 16.0164L18.3894 15.0795L17.7905 12.7839L14.1991 13.7207ZM14.798 16.0164H11.0864C11.0864 15.9394 11.0942 15.7924 11.1794 15.5747C11.26 15.3687 11.5209 14.832 12.1897 14.4307L14.0993 17.6134L16.0089 20.796C17.1768 20.0953 17.787 19.0596 18.0922 18.2797C18.402 17.488 18.5096 16.6923 18.5096 16.0164H14.798ZM15.6963 10.926L13.1918 8.18679L9.69845 11.3807L12.2029 14.12L14.7074 16.8592L18.2007 13.6653L15.6963 10.926ZM12.2029 14.12L9.77209 11.3152C8.87454 12.0931 7.70523 12.5963 6.4438 12.7225L6.81311 16.4156L7.18243 20.1088C9.91343 19.8357 12.5369 18.742 14.6337 16.9248L12.2029 14.12ZM6.81311 16.4156L9.43759 13.7912L6.8425 11.1961L4.21803 13.8206L1.59355 16.445L4.18864 19.0401L6.81311 16.4156ZM4.21803 13.8206L7.88853 14.3711C8.09802 12.9746 8.64179 11.7575 9.41828 10.8616L6.61349 8.43076L3.8087 5.99994C1.99011 8.09831 0.936897 10.6741 0.547518 13.27L4.21803 13.8206ZM6.61349 8.43076L9.38755 10.8966L10.9845 9.1L8.21047 6.63417L5.4364 4.16833L3.83943 5.96493L6.61349 8.43076ZM8.21047 6.63417L10.835 9.25864L10.9348 9.15883L8.31028 6.53435L5.68579 3.90988L5.58598 4.00969L8.21047 6.63417ZM8.31028 6.53435L11.1035 8.97844L12.5009 7.38147L9.70763 4.93738L6.91439 2.49329L5.51704 4.09027L8.31028 6.53435ZM9.70763 4.93738L12.541 7.33484C13.842 5.79726 16.0445 5.05492 18.0203 5.47402L18.7904 1.84324L19.5606 -1.78755C14.9488 -2.7658 9.96493 -1.11268 6.87427 2.53992L9.70763 4.93738ZM18.7904 1.84324L15.1551 2.59169C15.5989 4.74737 14.885 6.79939 13.3518 8.0487L15.6963 10.926L18.0408 13.8034C21.8973 10.661 23.3793 5.72625 22.4258 1.09479L18.7904 1.84324ZM14.4986 4.2387V0.52713C11.2247 0.52713 8.89058 3.21554 8.89058 6.13511H12.6022H16.3137C16.3137 7.05846 15.5766 7.95027 14.4986 7.95027V4.2387ZM12.6022 6.13511H8.89058C8.89058 9.18307 11.4506 11.7431 14.4986 11.7431V8.03152V4.31995C15.1164 4.31995 15.5535 4.58606 15.8005 4.83313C16.0476 5.0802 16.3137 5.5173 16.3137 6.13511H12.6022ZM14.4986 8.03152V11.7431C17.7724 11.7431 20.1065 9.05468 20.1065 6.13511H16.395H12.6834C12.6834 5.21176 13.4206 4.31995 14.4986 4.31995V8.03152ZM16.395 6.13511H20.1065C20.1065 3.21554 17.7724 0.52713 14.4986 0.52713V4.2387V7.95027C13.4206 7.95027 12.6834 7.05846 12.6834 6.13511H16.395ZM14.4986 7.13322V3.42165C16.0494 3.42165 17.3118 4.68414 17.3118 6.23492H13.6003H9.88869C9.88869 8.78381 11.9497 10.8448 14.4986 10.8448V7.13322ZM13.6003 6.23492H17.3118C17.3118 7.78571 16.0494 9.04819 14.4986 9.04819V5.33662V1.62505C11.9497 1.62505 9.88869 3.68602 9.88869 6.23492H13.6003ZM14.4986 5.33662V9.04819C12.9478 9.04819 11.6853 7.78571 11.6853 6.23492H15.3969H19.1084C19.1084 3.68602 17.0475 1.62505 14.4986 1.62505V5.33662ZM15.3969 6.23492H11.6853C11.6853 4.68413 12.9478 3.42165 14.4986 3.42165V7.13322V10.8448C17.0475 10.8448 19.1084 8.78382 19.1084 6.23492H15.3969Z" fill="#0682A2" mask="url(#path-1-inside-1_11_21832)"/>
</svg>
