<svg width="17" height="18" viewBox="0 0 17 18" fill="none" xmlns="http://www.w3.org/2000/svg">
<path d="M15.7857 5.34238H14.4257C14.8143 4.87609 15.0571 4.29323 15.0571 3.64238C15.0571 2.1658 13.8623 0.970947 12.3857 0.970947C10.7537 0.970947 9.316 1.83552 8.5 3.1178C8.08507 2.4621 7.51148 1.92163 6.83229 1.54637C6.1531 1.17112 5.39024 0.97321 4.61429 0.970947C3.13771 0.970947 1.94286 2.1658 1.94286 3.64238C1.94286 4.29323 2.18571 4.87609 2.57429 5.34238H1.21429C0.544 5.34238 0 5.88638 0 6.55666V8.98523C0 9.56809 0.417714 10.0344 0.971429 10.1509V16.7567C0.971429 17.4269 1.51543 17.9709 2.18571 17.9709H14.8143C15.4846 17.9709 16.0286 17.4269 16.0286 16.7567V10.1509C16.5823 10.0344 17 9.56809 17 8.98523V6.55666C17 5.88638 16.456 5.34238 15.7857 5.34238ZM15.5429 8.74238H9.22857V6.79952H15.5429V8.74238ZM12.3857 2.42809C12.7078 2.42809 13.0166 2.55602 13.2443 2.78375C13.4721 3.01147 13.6 3.32033 13.6 3.64238C13.6 3.96442 13.4721 4.27328 13.2443 4.50101C13.0166 4.72873 12.7078 4.85666 12.3857 4.85666H9.316C9.64629 3.46752 10.8994 2.42809 12.3857 2.42809ZM4.61429 2.42809C6.10057 2.42809 7.35371 3.46752 7.684 4.85666H4.61429C4.29224 4.85666 3.98338 4.72873 3.75566 4.50101C3.52793 4.27328 3.4 3.96442 3.4 3.64238C3.4 3.32033 3.52793 3.01147 3.75566 2.78375C3.98338 2.55602 4.29224 2.42809 4.61429 2.42809ZM1.45714 6.79952H7.77143V8.74238H1.45714V6.79952ZM2.42857 10.1995H7.77143V16.5138H2.42857V10.1995ZM14.5714 16.5138H9.22857V10.1995H14.5714V16.5138Z" fill="#0682A2"/>
</svg>
