<svg width="27" height="28" viewBox="0 0 27 28" fill="none" xmlns="http://www.w3.org/2000/svg">
<path fill-rule="evenodd" clip-rule="evenodd" d="M25.9804 14.106C25.9804 13.1667 25.8961 12.2635 25.7396 11.3964H13.2637V16.5205H20.3928C20.0857 18.1763 19.1524 19.5792 17.7495 20.5185V23.8422H22.0305C24.5353 21.5361 25.9804 18.1402 25.9804 14.106Z" fill="#4285F4"/>
<path fill-rule="evenodd" clip-rule="evenodd" d="M13.2654 27.0515C16.842 27.0515 19.8405 25.8653 22.0323 23.8422L17.7512 20.5185C16.565 21.3133 15.0477 21.7829 13.2654 21.7829C9.81526 21.7829 6.89498 19.4527 5.85331 16.3217H1.42773V19.7538C3.60741 24.083 8.08718 27.0515 13.2654 27.0515Z" fill="#34A853"/>
<path fill-rule="evenodd" clip-rule="evenodd" d="M5.85211 16.3218C5.58718 15.527 5.43665 14.678 5.43665 13.8049C5.43665 12.9318 5.58718 12.0828 5.85211 11.288V7.85596H1.42654C0.52938 9.64425 0.0175781 11.6674 0.0175781 13.8049C0.0175781 15.9424 0.52938 17.9655 1.42654 19.7538L5.85211 16.3218Z" fill="#FBBC05"/>
<path fill-rule="evenodd" clip-rule="evenodd" d="M13.2654 5.82683C15.2102 5.82683 16.9564 6.49519 18.3292 7.80781L22.1286 4.00843C19.8345 1.87091 16.836 0.558289 13.2654 0.558289C8.08718 0.558289 3.60741 3.52674 1.42773 7.85598L5.85331 11.2881C6.89498 8.15704 9.81526 5.82683 13.2654 5.82683Z" fill="#EA4335"/>
</svg>
