<svg width="57" height="34" viewBox="0 0 57 34" fill="none" xmlns="http://www.w3.org/2000/svg">
<path d="M45.125 29.2354V33.9854H16.625V29.2354C16.625 29.2354 16.625 19.7354 30.875 19.7354C45.125 19.7354 45.125 29.2354 45.125 29.2354ZM38 7.86035C38 6.45116 37.5821 5.07362 36.7992 3.90192C36.0163 2.73022 34.9035 1.81699 33.6016 1.27771C32.2997 0.738439 30.8671 0.59734 29.485 0.87226C28.1029 1.14718 26.8333 1.82577 25.8369 2.82222C24.8404 3.81867 24.1618 5.08822 23.8869 6.47034C23.612 7.85245 23.7531 9.28505 24.2924 10.587C24.8316 11.8889 25.7449 13.0017 26.9166 13.7846C28.0883 14.5675 29.4658 14.9854 30.875 14.9854C32.7647 14.9854 34.5769 14.2347 35.9131 12.8985C37.2493 11.5623 38 9.75002 38 7.86035ZM45.6 19.8779C46.8982 21.0756 47.9449 22.5199 48.6789 24.1265C49.4129 25.7331 49.8195 27.4699 49.875 29.2354V33.9854H57V29.2354C57 29.2354 57 21.0416 45.6 19.8779ZM42.75 0.735354C42.0324 0.735396 41.3192 0.847583 40.6363 1.06785C42.0258 3.06041 42.7707 5.43116 42.7707 7.86035C42.7707 10.2895 42.0258 12.6603 40.6363 14.6529C41.3192 14.8731 42.0324 14.9853 42.75 14.9854C44.6397 14.9854 46.4519 14.2347 47.7881 12.8985C49.1243 11.5623 49.875 9.75002 49.875 7.86035C49.875 5.97069 49.1243 4.15841 47.7881 2.82222C46.4519 1.48602 44.6397 0.735354 42.75 0.735354ZM19 12.6104H11.875V5.48535H7.125V12.6104H0V17.3604H7.125V24.4854H11.875V17.3604H19V12.6104Z" fill="url(#paint0_linear_11_21803)"/>
<defs>
<linearGradient id="paint0_linear_11_21803" x1="28.5" y1="0.735352" x2="28.5" y2="33.9854" gradientUnits="userSpaceOnUse">
<stop stop-color="#FFB72D"/>
<stop offset="1" stop-color="#FF7E3F"/>
</linearGradient>
</defs>
</svg>
