<svg width="51" height="52" viewBox="0 0 51 52" fill="none" xmlns="http://www.w3.org/2000/svg">
<rect y="0.5" width="51" height="51" rx="6" fill="#6B3370" fill-opacity="0.5"/>
<path d="M37.0473 29.4004L34.6204 26.9734V23.7585C34.6176 21.5367 33.7911 19.3949 32.3007 17.7472C30.8103 16.0994 28.7619 15.0629 26.5515 14.8379V13H24.7585V14.8379C22.5481 15.0629 20.4997 16.0994 19.0093 17.7472C17.5189 19.3949 16.6924 21.5367 16.6896 23.7585V26.9734L14.2627 29.4004C14.0945 29.5685 14.0001 29.7965 14 30.0342V32.7238C14 32.9616 14.0945 33.1897 14.2626 33.3578C14.4307 33.5259 14.6588 33.6204 14.8965 33.6204H21.1723V34.317C21.1524 35.4545 21.5532 36.5593 22.2977 37.4195C23.0422 38.2796 24.0781 38.8347 25.2067 38.9781C25.83 39.0399 26.4593 38.9706 27.0541 38.7746C27.649 38.5786 28.1962 38.2602 28.6607 37.8401C29.1251 37.4199 29.4965 36.9071 29.7508 36.3348C30.0052 35.7625 30.137 35.1432 30.1377 34.5169V33.6204H36.4135C36.6512 33.6204 36.8793 33.5259 37.0474 33.3578C37.2155 33.1897 37.31 32.9616 37.31 32.7238V30.0342C37.3099 29.7965 37.2155 29.5685 37.0473 29.4004ZM28.3446 34.5169C28.3446 35.2302 28.0612 35.9144 27.5568 36.4188C27.0524 36.9232 26.3683 37.2065 25.655 37.2065C24.9417 37.2065 24.2576 36.9232 23.7532 36.4188C23.2488 35.9144 22.9654 35.2302 22.9654 34.5169V33.6204H28.3446V34.5169ZM35.5169 31.8273H15.7931V30.4054L18.22 27.9785C18.3882 27.8104 18.4826 27.5824 18.4827 27.3446V23.7585C18.4827 21.8562 19.2383 20.0319 20.5834 18.6869C21.9285 17.3418 23.7528 16.5862 25.655 16.5862C27.5572 16.5862 29.3815 17.3418 30.7266 18.6869C32.0717 20.0319 32.8273 21.8562 32.8273 23.7585V27.3446C32.8274 27.5824 32.9218 27.8104 33.09 27.9785L35.5169 30.4054V31.8273Z" fill="white"/>
</svg>
