<svg width="44" height="44" viewBox="0 0 44 44" fill="none" xmlns="http://www.w3.org/2000/svg">
<g clip-path="url(#clip0_11_21904)">
<g filter="url(#filter0_d_11_21904)">
<path d="M11.1751 13.273C11.1641 11.9243 11.6689 10.6224 12.5862 9.63359C13.5035 8.64481 14.764 8.04393 16.1097 7.9539L16.4199 7.94257L16.5715 7.94134L16.6042 7.84942C16.7796 7.39555 17.0768 6.99889 17.4632 6.70311C17.8495 6.40733 18.31 6.2239 18.7939 6.17303L19.0494 6.15862L24.337 6.11579C24.8671 6.1114 25.3863 6.26647 25.8272 6.56088C26.268 6.85528 26.6102 7.27542 26.8093 7.76675L26.8417 7.85814L26.9951 7.8569C28.3438 7.8459 29.6457 8.3507 30.6345 9.26801C31.6233 10.1853 32.2242 11.4458 32.3142 12.7915L32.3255 13.1017L32.4826 32.4895C32.4936 33.8383 31.9888 35.1402 31.0715 36.129C30.1542 37.1177 28.8937 37.7186 27.5479 37.8087L27.2378 37.82L16.6626 37.9057C15.3139 37.9167 14.012 37.4119 13.0232 36.4945C12.0344 35.5772 11.4335 34.3168 11.3435 32.971L11.3322 32.6609L11.1751 13.273ZM16.6055 30.8555C16.6093 31.323 16.7986 31.7698 17.1318 32.0976C17.465 32.4255 17.9148 32.6076 18.3823 32.6038L25.4324 32.5467L25.6386 32.5326C26.0842 32.476 26.4914 32.2513 26.777 31.9044C27.0625 31.5576 27.2048 31.1148 27.1749 30.6666C27.1449 30.2183 26.9449 29.7985 26.6158 29.4927C26.2866 29.187 25.8531 29.0184 25.4039 29.0216L18.3537 29.0787L18.1476 29.0927C17.7193 29.1467 17.3257 29.356 17.0414 29.6809C16.7572 30.0059 16.602 30.4238 16.6055 30.8555ZM16.5627 25.5679C16.5664 26.0354 16.7558 26.4822 17.089 26.81C17.4222 27.1379 17.872 27.32 18.3395 27.3162L25.3896 27.2591L25.5957 27.245C26.0414 27.1884 26.4486 26.9637 26.7341 26.6168C27.0197 26.27 27.162 25.8272 27.132 25.379C27.1021 24.9307 26.9021 24.5108 26.5729 24.2051C26.2438 23.8994 25.8103 23.7308 25.361 23.734L18.3109 23.7911L18.1048 23.8051C17.6765 23.8591 17.2828 24.0684 16.9986 24.3933C16.7143 24.7183 16.5592 25.1362 16.5627 25.5679Z" fill="url(#paint0_linear_11_21904)"/>
</g>
</g>
<defs>
<filter id="filter0_d_11_21904" x="7.17578" y="6.11572" width="29.3066" height="39.79" filterUnits="userSpaceOnUse" color-interpolation-filters="sRGB">
<feFlood flood-opacity="0" result="BackgroundImageFix"/>
<feColorMatrix in="SourceAlpha" type="matrix" values="0 0 0 0 0 0 0 0 0 0 0 0 0 0 0 0 0 0 127 0" result="hardAlpha"/>
<feOffset dy="4"/>
<feGaussianBlur stdDeviation="2"/>
<feComposite in2="hardAlpha" operator="out"/>
<feColorMatrix type="matrix" values="0 0 0 0 0 0 0 0 0 0 0 0 0 0 0 0 0 0 0.25 0"/>
<feBlend mode="normal" in2="BackgroundImageFix" result="effect1_dropShadow_11_21904"/>
<feBlend mode="normal" in="SourceGraphic" in2="effect1_dropShadow_11_21904" result="shape"/>
</filter>
<linearGradient id="paint0_linear_11_21904" x1="21.6932" y1="6.1372" x2="21.9502" y2="37.8628" gradientUnits="userSpaceOnUse">
<stop stop-color="#FF823E"/>
<stop offset="1" stop-color="#FFBB2C"/>
</linearGradient>
<clipPath id="clip0_11_21904">
<rect width="42.3022" height="42.3022" fill="white" transform="translate(0.841797 43.3218) rotate(-90.4641)"/>
</clipPath>
</defs>
</svg>
