<svg width="40" height="36" viewBox="0 0 40 36" fill="none" xmlns="http://www.w3.org/2000/svg">
<path d="M9.5 3.34813C8.68912 3.91185 8.02681 4.66354 7.56968 5.53894C7.11255 6.41435 6.8742 7.38743 6.875 8.375C6.87478 9.43179 7.14799 10.4707 7.66807 11.3906C8.18815 12.3106 8.93741 13.0803 9.843 13.625M30.5 3.34813C31.3109 3.91185 31.9732 4.66354 32.4303 5.53894C32.8874 6.41435 33.1258 7.38743 33.125 8.375C33.1259 9.36272 32.8877 10.336 32.4305 11.2115C31.9734 12.0871 31.311 12.8389 30.5 13.4028M37.5 33.75V32.7C37.5 28.78 37.5 26.82 36.737 25.322C36.0659 24.0049 34.9951 22.9341 33.678 22.263M2.5 33.75V32.7C2.5 28.78 2.5 26.82 3.263 25.322C3.9341 24.0049 5.00492 22.9341 6.322 22.263M20 14.5C20.8043 14.5 21.6008 14.3416 22.3439 14.0338C23.0871 13.726 23.7623 13.2748 24.331 12.706C24.8998 12.1373 25.351 11.4621 25.6588 10.7189C25.9666 9.97582 26.125 9.17935 26.125 8.375C26.125 7.57065 25.9666 6.77418 25.6588 6.03106C25.351 5.28794 24.8998 4.61273 24.331 4.04397C23.7623 3.47521 23.0871 3.02405 22.3439 2.71624C21.6008 2.40843 20.8043 2.25 20 2.25C18.3755 2.25 16.8176 2.89531 15.669 4.04397C14.5203 5.19263 13.875 6.75055 13.875 8.375C13.875 9.99945 14.5203 11.5574 15.669 12.706C16.8176 13.8547 18.3755 14.5 20 14.5ZM9.5 32V33.75H30.5V32C30.5 28.7389 30.5 27.1079 29.9671 25.8207C29.2565 24.1057 27.8936 22.7431 26.1784 22.0329C24.893 21.5 23.262 21.5 20 21.5C16.738 21.5 15.1079 21.5 13.8216 22.0329C12.9722 22.3847 12.2005 22.9003 11.5504 23.5504C10.9003 24.2005 10.3847 24.9722 10.0329 25.8216C9.5 27.1079 9.5 28.7389 9.5 32Z" stroke="url(#paint0_linear_11_21887)" stroke-width="3.5" stroke-linecap="round" stroke-linejoin="round"/>
<defs>
<linearGradient id="paint0_linear_11_21887" x1="22.5" y1="26.75" x2="25.3122" y2="25.5446" gradientUnits="userSpaceOnUse">
<stop stop-color="#FFBB2C"/>
<stop offset="1" stop-color="#FF833E"/>
</linearGradient>
</defs>
</svg>
