<svg width="44" height="48" viewBox="0 0 44 48" fill="none" xmlns="http://www.w3.org/2000/svg">
<g filter="url(#filter0_d_11_21894)">
<path d="M14.834 8.5625V11.25H12.1465V13.0417H14.834V15.7292H16.6257V13.0417H19.3132V11.25H16.6257V8.5625H14.834Z" fill="black" fill-opacity="0.42"/>
<path fill-rule="evenodd" clip-rule="evenodd" d="M12.5104 5.875C11.7562 5.875 11.0329 6.17461 10.4996 6.70792C9.96627 7.24122 9.66667 7.96454 9.66667 8.71875V9.66667H5.875V27.6771H26.7292V9.66667H22.9375V8.71875C22.9375 7.96454 22.6379 7.24122 22.1046 6.70792C21.5713 6.17461 20.848 5.875 20.0938 5.875H12.5104ZM20.0938 19.1458C20.848 19.1458 21.5713 18.8462 22.1046 18.3129C22.6379 17.7796 22.9375 17.0563 22.9375 16.3021V15.3542H24.8333V25.7812H20.0938V20.0938H12.5104V25.7812H7.77083V15.3542H9.66667V16.3021C9.66667 17.0563 9.96627 17.7796 10.4996 18.3129C11.0329 18.8462 11.7562 19.1458 12.5104 19.1458H20.0938ZM11.5625 8.71875C11.5625 8.46735 11.6624 8.22624 11.8401 8.04847C12.0179 7.8707 12.259 7.77083 12.5104 7.77083H20.0938C20.3452 7.77083 20.5863 7.8707 20.764 8.04847C20.9418 8.22624 21.0417 8.46735 21.0417 8.71875V16.3021C21.0417 16.5535 20.9418 16.7946 20.764 16.9724C20.5863 17.1501 20.3452 17.25 20.0938 17.25H12.5104C12.259 17.25 12.0179 17.1501 11.8401 16.9724C11.6624 16.7946 11.5625 16.5535 11.5625 16.3021V8.71875ZM7.77083 11.5625H9.66667V13.4583H7.77083V11.5625ZM24.8333 13.4583H22.9375V11.5625H24.8333V13.4583ZM18.1979 21.9896V25.7812H14.4062V21.9896H18.1979ZM28.625 26.7292C28.625 25.7236 29.0245 24.7591 29.7356 24.0481C30.4466 23.337 31.4111 22.9375 32.4167 22.9375C33.4223 22.9375 34.3867 23.337 35.0978 24.0481C35.8089 24.7591 36.2083 25.7236 36.2083 26.7292C36.2083 27.7348 35.8089 28.6992 35.0978 29.4103C34.3867 30.1214 33.4223 30.5208 32.4167 30.5208C31.4111 30.5208 30.4466 30.1214 29.7356 29.4103C29.0245 28.6992 28.625 27.7348 28.625 26.7292ZM32.4167 24.8333C31.9139 24.8333 31.4316 25.0331 31.0761 25.3886C30.7206 25.7441 30.5208 26.2264 30.5208 26.7292C30.5208 27.232 30.7206 27.7142 31.0761 28.0697C31.4316 28.4253 31.9139 28.625 32.4167 28.625C32.9195 28.625 33.4017 28.4253 33.7572 28.0697C34.1128 27.7142 34.3125 27.232 34.3125 26.7292C34.3125 26.2264 34.1128 25.7441 33.7572 25.3886C33.4017 25.0331 32.9195 24.8333 32.4167 24.8333ZM32.4167 31.4688C29.8857 31.4688 24.8333 32.8546 24.8333 35.6055V38.1042H16.3021C15.6111 38.1042 15.1627 37.8549 14.8774 37.5335C14.5769 37.1951 14.4062 36.7174 14.4062 36.2083V32.8091L17.5277 35.9306L18.8681 34.5902L13.4583 29.1805L8.04857 34.5902L9.38893 35.9306L12.5104 32.8091V36.2083C12.5104 37.1212 12.8138 38.0653 13.4612 38.7933C14.1238 39.5384 15.0973 40 16.3021 40H40V35.6055C40 32.8546 34.9476 31.4688 32.4167 31.4688ZM27.0079 35.1343C26.7396 35.4045 26.7292 35.5524 26.7292 35.6055V38.1042H38.1042V35.6055C38.1042 35.5524 38.0947 35.4045 37.8255 35.1343C37.5411 34.8471 37.0624 34.5334 36.3979 34.2433C35.0595 33.6565 33.4215 33.3646 32.4167 33.3646C31.4119 33.3646 29.7739 33.6584 28.4354 34.2424C27.7709 34.5324 27.2932 34.8471 27.0079 35.1343Z" fill="url(#paint0_linear_11_21894)"/>
</g>
<defs>
<filter id="filter0_d_11_21894" x="-3.5" y="0.5" width="51" height="51" filterUnits="userSpaceOnUse" color-interpolation-filters="sRGB">
<feFlood flood-opacity="0" result="BackgroundImageFix"/>
<feColorMatrix in="SourceAlpha" type="matrix" values="0 0 0 0 0 0 0 0 0 0 0 0 0 0 0 0 0 0 127 0" result="hardAlpha"/>
<feOffset dy="4"/>
<feGaussianBlur stdDeviation="2"/>
<feComposite in2="hardAlpha" operator="out"/>
<feColorMatrix type="matrix" values="0 0 0 0 0 0 0 0 0 0 0 0 0 0 0 0 0 0 0.25 0"/>
<feBlend mode="normal" in2="BackgroundImageFix" result="effect1_dropShadow_11_21894"/>
<feBlend mode="normal" in="SourceGraphic" in2="effect1_dropShadow_11_21894" result="shape"/>
</filter>
<linearGradient id="paint0_linear_11_21894" x1="22.9375" y1="5.875" x2="22.9375" y2="40" gradientUnits="userSpaceOnUse">
<stop stop-color="#FF873C"/>
<stop offset="1" stop-color="#FFB62D"/>
</linearGradient>
</defs>
</svg>
